0
SECTION
2
ENTITIES
0
3DFACE
8
0
10
0.0
20
0.0
30
0.0
11
50.0
21
0.0
31
0.0
12
49.878204
22
3.4878235
32
0.0
13
49.878304
23
3.4879234
33
1.0E-4
0
3DFACE
8
0
10
0.0
20
0.0
30
0.0
11
49.878204
21
3.4878235
31
0.0
12
49.5134
22
6.9586554
32
0.0
13
49.5135
23
6.9587555
33
1.0E-4
0
3DFACE
8
0
10
0.0
20
0.0
30
0.0
11
49.5134
21
6.9586554
31
0.0
12
48.907383
22
10.395585
32
0.0
13
48.907482
23
10.395685
33
1.0E-4
0
3DFACE
8
0
10
0.0
20
0.0
30
0.0
11
48.907383
21
10.395585
31
0.0
12
48.063084
22
13.781868
32
0.0
13
48.063183
23
13.781968
33
1.0E-4
0
3DFACE
8
0
10
0.0
20
0.0
30
0.0
11
48.063084
21
13.781868
31
0.0
12
46.98463
22
17.101006
32
0.0
13
46.98473
23
17.101105
33
1.0E-4
0
3DFACE
8
0
10
0.0
20
0.0
30
0.0
11
46.98463
21
17.101006
31
0.0
12
45.498066
22
20.734661
32
0.0
13
45.498165
23
20.73476
33
1.0E-4
0
3DFACE
8
0
10
0.0
20
0.0
30
0.0
11
45.498066
21
20.734661
31
0.0
12
43.940857
22
23.857937
32
0.0
13
43.940956
23
23.858036
33
1.0E-4
0
3DFACE
8
0
10
0.0
20
0.0
30
0.0
11
43.940857
21
23.857937
31
0.0
12
42.16957
22
26.864983
32
0.0
13
42.16967
23
26.865082
33
1.0E-4
0
3DFACE
8
0
10
0.0
20
0.0
30
0.0
11
42.16957
21
26.864983
31
0.0
12
40.192844
22
29.741138
32
0.0
13
40.192944
23
29.741238
33
1.0E-4
0
3DFACE
8
0
10
0.0
20
0.0
30
0.0
11
40.192844
21
29.741138
31
0.0
12
38.020298
22
32.4724
32
0.0
13
38.020397
23
32.4725
33
1.0E-4
0
3DFACE
8
0
10
0.0
20
0.0
30
0.0
11
38.020298
21
32.4724
31
0.0
12
35.66252
22
35.045464
32
0.0
13
35.66262
23
35.045563
33
1.0E-4
0
3DFACE
8
0
10
0.0
20
0.0
30
0.0
11
35.66252
21
35.045464
31
0.0
12
32.80295
22
37.735477
32
0.0
13
32.80305
23
37.735577
33
1.0E-4
0
3DFACE
8
0
10
0.0
20
0.0
30
0.0
11
32.80295
21
37.735477
31
0.0
12
30.090752
22
39.931778
32
0.0
13
30.09085
23
39.931877
33
1.0E-4
0
3DFACE
8
0
10
0.0
20
0.0
30
0.0
11
30.090752
21
39.931778
31
0.0
12
27.231953
22
41.93353
32
0.0
13
27.232052
23
41.933628
33
1.0E-4
0
3DFACE
8
0
10
0.0
20
0.0
30
0.0
11
27.231953
21
41.93353
31
0.0
12
24.240479
22
43.730988
32
0.0
13
24.240578
23
43.731087
33
1.0E-4
0
3DFACE
8
0
10
0.0
20
0.0
30
0.0
11
24.240479
21
43.730988
31
0.0
12
21.130913
22
45.31539
32
0.0
13
21.131012
23
45.31549
33
1.0E-4
0
3DFACE
8
0
10
0.0
20
0.0
30
0.0
11
21.130913
21
45.31539
31
0.0
12
17.510366
22
46.83361
32
0.0
13
17.510466
23
46.83371
33
1.0E-4
0
3DFACE
8
0
10
0.0
20
0.0
30
0.0
11
17.510366
21
46.83361
31
0.0
12
14.200767
22
47.940987
32
0.0
13
14.200867
23
47.941086
33
1.0E-4
0
3DFACE
8
0
10
0.0
20
0.0
30
0.0
11
14.200767
21
47.940987
31
0.0
12
10.821982
22
48.8148
32
0.0
13
10.8220825
23
48.8149
33
1.0E-4
0
3DFACE
8
0
10
0.0
20
0.0
30
0.0
11
10.821982
21
48.8148
31
0.0
12
7.390474
22
49.450794
32
0.0
13
7.390574
23
49.450893
33
1.0E-4
0
3DFACE
8
0
10
0.0
20
0.0
30
0.0
11
7.390474
21
49.450794
31
0.0
12
3.922954
22
49.845867
32
0.0
13
3.923054
23
49.845966
33
1.0E-4
0
3DFACE
8
0
10
0.0
20
0.0
30
0.0
11
3.922954
21
49.845867
31
0.0
12
-2.1855694E-6
22
50.0
32
0.0
13
9.781443E-5
23
50.0001
33
1.0E-4
0
3DFACE
8
0
10
0.0
20
0.0
30
0.0
11
-2.1855694E-6
21
50.0
31
0.0
12
-3.487824
22
49.878204
32
0.0
13
-3.487724
23
49.878304
33
1.0E-4
0
3DFACE
8
0
10
0.0
20
0.0
30
0.0
11
-3.487824
21
49.878204
31
0.0
12
-6.958654
22
49.5134
32
0.0
13
-6.958554
23
49.5135
33
1.0E-4
0
3DFACE
8
0
10
0.0
20
0.0
30
0.0
11
-6.958654
21
49.5134
31
0.0
12
-10.395581
22
48.907383
32
0.0
13
-10.395481
23
48.907482
33
1.0E-4
0
3DFACE
8
0
10
0.0
20
0.0
30
0.0
11
-10.395581
21
48.907383
31
0.0
12
-13.781868
22
48.063084
32
0.0
13
-13.781768
23
48.063183
33
1.0E-4
0
3DFACE
8
0
10
0.0
20
0.0
30
0.0
11
-13.781868
21
48.063084
31
0.0
12
-17.101006
22
46.98463
32
0.0
13
-17.100906
23
46.98473
33
1.0E-4
0
3DFACE
8
0
10
0.0
20
0.0
30
0.0
11
-17.101006
21
46.98463
31
0.0
12
-20.734661
22
45.498066
32
0.0
13
-20.734562
23
45.498165
33
1.0E-4
0
3DFACE
8
0
10
0.0
20
0.0
30
0.0
11
-20.734661
21
45.498066
31
0.0
12
-23.857937
22
43.940857
32
0.0
13
-23.857838
23
43.940956
33
1.0E-4
0
3DFACE
8
0
10
0.0
20
0.0
30
0.0
11
-23.857937
21
43.940857
31
0.0
12
-26.864983
22
42.16957
32
0.0
13
-26.864883
23
42.16967
33
1.0E-4
0
3DFACE
8
0
10
0.0
20
0.0
30
0.0
11
-26.864983
21
42.16957
31
0.0
12
-29.741135
22
40.192844
32
0.0
13
-29.741035
23
40.192944
33
1.0E-4
0
3DFACE
8
0
10
0.0
20
0.0
30
0.0
11
-29.741135
21
40.192844
31
0.0
12
-32.4724
22
38.020298
32
0.0
13
-32.4723
23
38.020397
33
1.0E-4
0
3DFACE
8
0
10
0.0
20
0.0
30
0.0
11
-32.4724
21
38.020298
31
0.0
12
-35.35534
22
35.35534
32
0.0
13
-35.35524
23
35.35544
33
1.0E-4
0
3DFACE
8
0
10
0.0
20
0.0
30
0.0
11
-35.35534
21
35.35534
31
0.0
12
-37.73548
22
32.802948
32
0.0
13
-37.735382
23
32.803047
33
1.0E-4
0
3DFACE
8
0
10
0.0
20
0.0
30
0.0
11
-37.73548
21
32.802948
31
0.0
12
-39.931774
22
30.090755
32
0.0
13
-39.931675
23
30.090855
33
1.0E-4
0
3DFACE
8
0
10
0.0
20
0.0
30
0.0
11
-39.931774
21
30.090755
31
0.0
12
-41.93353
22
27.231953
32
0.0
13
-41.93343
23
27.232052
33
1.0E-4
0
3DFACE
8
0
10
0.0
20
0.0
30
0.0
11
-41.93353
21
27.231953
31
0.0
12
-43.730988
22
24.240477
32
0.0
13
-43.73089
23
24.240576
33
1.0E-4
0
3DFACE
8
0
10
0.0
20
0.0
30
0.0
11
-43.730988
21
24.240477
31
0.0
12
-45.315388
22
21.130917
32
0.0
13
-45.31529
23
21.131016
33
1.0E-4
0
3DFACE
8
0
10
0.0
20
0.0
30
0.0
11
-45.315388
21
21.130917
31
0.0
12
-46.833607
22
17.51037
32
0.0
13
-46.833508
23
17.51047
33
1.0E-4
0
3DFACE
8
0
10
0.0
20
0.0
30
0.0
11
-46.833607
21
17.51037
31
0.0
12
-47.940987
22
14.200765
32
0.0
13
-47.940887
23
14.200865
33
1.0E-4
0
3DFACE
8
0
10
0.0
20
0.0
30
0.0
11
-47.940987
21
14.200765
31
0.0
12
-48.8148
22
10.821986
32
0.0
13
-48.8147
23
10.822086
33
1.0E-4
0
3DFACE
8
0
10
0.0
20
0.0
30
0.0
11
-48.8148
21
10.821986
31
0.0
12
-49.450794
22
7.3904715
32
0.0
13
-49.450695
23
7.3905716
33
1.0E-4
0
3DFACE
8
0
10
0.0
20
0.0
30
0.0
11
-49.450794
21
7.3904715
31
0.0
12
-49.845867
22
3.922952
32
0.0
13
-49.845768
23
3.9230518
33
1.0E-4
0
3DFACE
8
0
10
0.0
20
0.0
30
0.0
11
-49.845867
21
3.922952
31
0.0
12
-50.0
22
-4.371139E-6
32
0.0
13
-49.9999
23
9.562886E-5
33
1.0E-4
0
3DFACE
8
0
10
0.0
20
0.0
30
0.0
11
-50.0
21
-4.371139E-6
31
0.0
12
-49.878204
22
-3.4878201
32
0.0
13
-49.878105
23
-3.4877203
33
1.0E-4
0
3DFACE
8
0
10
0.0
20
0.0
30
0.0
11
-49.878204
21
-3.4878201
31
0.0
12
-49.5134
22
-6.9586554
32
0.0
13
-49.5133
23
-6.958555
33
1.0E-4
0
3DFACE
8
0
10
0.0
20
0.0
30
0.0
11
-49.5134
21
-6.9586554
31
0.0
12
-48.90738
22
-10.39559
32
0.0
13
-48.90728
23
-10.39549
33
1.0E-4
0
3DFACE
8
0
10
0.0
20
0.0
30
0.0
11
-48.90738
21
-10.39559
31
0.0
12
-48.063084
22
-13.781865
32
0.0
13
-48.062984
23
-13.781765
33
1.0E-4
0
3DFACE
8
0
10
0.0
20
0.0
30
0.0
11
-48.063084
21
-13.781865
31
0.0
12
-46.98463
22
-17.101007
32
0.0
13
-46.98453
23
-17.100908
33
1.0E-4
0
3DFACE
8
0
10
0.0
20
0.0
30
0.0
11
-46.98463
21
-17.101007
31
0.0
12
-45.498062
22
-20.734665
32
0.0
13
-45.497963
23
-20.734566
33
1.0E-4
0
3DFACE
8
0
10
0.0
20
0.0
30
0.0
11
-45.498062
21
-20.734665
31
0.0
12
-43.940857
22
-23.857933
32
0.0
13
-43.940758
23
-23.857834
33
1.0E-4
0
3DFACE
8
0
10
0.0
20
0.0
30
0.0
11
-43.940857
21
-23.857933
31
0.0
12
-42.169575
22
-26.864979
32
0.0
13
-42.169476
23
-26.86488
33
1.0E-4
0
3DFACE
8
0
10
0.0
20
0.0
30
0.0
11
-42.169575
21
-26.864979
31
0.0
12
-40.19284
22
-29.74114
32
0.0
13
-40.19274
23
-29.741041
33
1.0E-4
0
3DFACE
8
0
10
0.0
20
0.0
30
0.0
11
-40.19284
21
-29.74114
31
0.0
12
-38.0203
22
-32.4724
32
0.0
13
-38.020203
23
-32.4723
33
1.0E-4
0
3DFACE
8
0
10
0.0
20
0.0
30
0.0
11
-38.0203
21
-32.4724
31
0.0
12
-35.355343
22
-35.355335
32
0.0
13
-35.355244
23
-35.355236
33
1.0E-4
0
3DFACE
8
0
10
0.0
20
0.0
30
0.0
11
-35.355343
21
-35.355335
31
0.0
12
-32.80295
22
-37.73548
32
0.0
13
-32.802853
23
-37.735382
33
1.0E-4
0
3DFACE
8
0
10
0.0
20
0.0
30
0.0
11
-32.80295
21
-37.73548
31
0.0
12
-30.090757
22
-39.93177
32
0.0
13
-30.090658
23
-39.93167
33
1.0E-4
0
3DFACE
8
0
10
0.0
20
0.0
30
0.0
11
-30.090757
21
-39.93177
31
0.0
12
-27.231956
22
-41.93353
32
0.0
13
-27.231857
23
-41.93343
33
1.0E-4
0
3DFACE
8
0
10
0.0
20
0.0
30
0.0
11
-27.231956
21
-41.93353
31
0.0
12
-24.24048
22
-43.730988
32
0.0
13
-24.240381
23
-43.73089
33
1.0E-4
0
3DFACE
8
0
10
0.0
20
0.0
30
0.0
11
-24.24048
21
-43.730988
31
0.0
12
-21.130909
22
-45.31539
32
0.0
13
-21.13081
23
-45.315292
33
1.0E-4
0
3DFACE
8
0
10
0.0
20
0.0
30
0.0
11
-21.130909
21
-45.31539
31
0.0
12
-17.510363
22
-46.83361
32
0.0
13
-17.510263
23
-46.83351
33
1.0E-4
0
3DFACE
8
0
10
0.0
20
0.0
30
0.0
11
-17.510363
21
-46.83361
31
0.0
12
-14.20078
22
-47.940983
32
0.0
13
-14.20068
23
-47.940884
33
1.0E-4
0
3DFACE
8
0
10
0.0
20
0.0
30
0.0
11
-14.20078
21
-47.940983
31
0.0
12
-10.82199
22
-48.814796
32
0.0
13
-10.82189
23
-48.814697
33
1.0E-4
0
3DFACE
8
0
10
0.0
20
0.0
30
0.0
11
-10.82199
21
-48.814796
31
0.0
12
-7.3904753
22
-49.450794
32
0.0
13
-7.390375
23
-49.450695
33
1.0E-4
0
3DFACE
8
0
10
0.0
20
0.0
30
0.0
11
-7.3904753
21
-49.450794
31
0.0
12
-3.9229558
22
-49.845867
32
0.0
13
-3.9228559
23
-49.845768
33
1.0E-4
0
3DFACE
8
0
10
0.0
20
0.0
30
0.0
11
-3.9229558
21
-49.845867
31
0.0
12
5.9624404E-7
22
-50.0
32
0.0
13
1.0059624E-4
23
-49.9999
33
1.0E-4
0
3DFACE
8
0
10
0.0
20
0.0
30
0.0
11
5.9624404E-7
21
-50.0
31
0.0
12
3.4878283
22
-49.8782
32
0.0
13
3.4879282
23
-49.8781
33
1.0E-4
0
3DFACE
8
0
10
0.0
20
0.0
30
0.0
11
3.4878283
21
-49.8782
31
0.0
12
6.9586635
22
-49.5134
32
0.0
13
6.9587636
23
-49.5133
33
1.0E-4
0
3DFACE
8
0
10
0.0
20
0.0
30
0.0
11
6.9586635
21
-49.5134
31
0.0
12
10.395574
22
-48.907383
32
0.0
13
10.395674
23
-48.907284
33
1.0E-4
0
3DFACE
8
0
10
0.0
20
0.0
30
0.0
11
10.395574
21
-48.907383
31
0.0
12
13.78186
22
-48.063087
32
0.0
13
13.7819605
23
-48.06299
33
1.0E-4
0
3DFACE
8
0
10
0.0
20
0.0
30
0.0
11
13.78186
21
-48.063087
31
0.0
12
17.101006
22
-46.98463
32
0.0
13
17.101105
23
-46.98453
33
1.0E-4
0
3DFACE
8
0
10
0.0
20
0.0
30
0.0
11
17.101006
21
-46.98463
31
0.0
12
20.734661
22
-45.498066
32
0.0
13
20.73476
23
-45.497967
33
1.0E-4
0
3DFACE
8
0
10
0.0
20
0.0
30
0.0
11
20.734661
21
-45.498066
31
0.0
12
23.85794
22
-43.940853
32
0.0
13
23.85804
23
-43.940754
33
1.0E-4
0
3DFACE
8
0
10
0.0
20
0.0
30
0.0
11
23.85794
21
-43.940853
31
0.0
12
26.864988
22
-42.169567
32
0.0
13
26.865088
23
-42.169468
33
1.0E-4
0
3DFACE
8
0
10
0.0
20
0.0
30
0.0
11
26.864988
21
-42.169567
31
0.0
12
29.741129
22
-40.192852
32
0.0
13
29.741228
23
-40.192753
33
1.0E-4
0
3DFACE
8
0
10
0.0
20
0.0
30
0.0
11
29.741129
21
-40.192852
31
0.0
12
32.472397
22
-38.020306
32
0.0
13
32.472496
23
-38.020206
33
1.0E-4
0
3DFACE
8
0
10
0.0
20
0.0
30
0.0
11
32.472397
21
-38.020306
31
0.0
12
35.35533
22
-35.355343
32
0.0
13
35.35543
23
-35.355244
33
1.0E-4
0
3DFACE
8
0
10
0.0
20
0.0
30
0.0
11
35.35533
21
-35.355343
31
0.0
12
37.735477
22
-32.802956
32
0.0
13
37.735577
23
-32.802856
33
1.0E-4
0
3DFACE
8
0
10
0.0
20
0.0
30
0.0
11
37.735477
21
-32.802956
31
0.0
12
39.931778
22
-30.09075
32
0.0
13
39.931877
23
-30.09065
33
1.0E-4
0
3DFACE
8
0
10
0.0
20
0.0
30
0.0
11
39.931778
21
-30.09075
31
0.0
12
41.93353
22
-27.231947
32
0.0
13
41.933628
23
-27.231848
33
1.0E-4
0
3DFACE
8
0
10
0.0
20
0.0
30
0.0
11
41.93353
21
-27.231947
31
0.0
12
43.730988
22
-24.240473
32
0.0
13
43.731087
23
-24.240374
33
1.0E-4
0
3DFACE
8
0
10
0.0
20
0.0
30
0.0
11
43.730988
21
-24.240473
31
0.0
12
45.315384
22
-21.130922
32
0.0
13
45.315483
23
-21.130823
33
1.0E-4
0
3DFACE
8
0
10
0.0
20
0.0
30
0.0
11
45.315384
21
-21.130922
31
0.0
12
46.833607
22
-17.510378
32
0.0
13
46.833706
23
-17.510279
33
1.0E-4
0
3DFACE
8
0
10
0.0
20
0.0
30
0.0
11
46.833607
21
-17.510378
31
0.0
12
47.940983
22
-14.200772
32
0.0
13
47.941082
23
-14.200672
33
1.0E-4
0
3DFACE
8
0
10
0.0
20
0.0
30
0.0
11
47.940983
21
-14.200772
31
0.0
12
48.8148
22
-10.821981
32
0.0
13
48.8149
23
-10.821881
33
1.0E-4
0
3DFACE
8
0
10
0.0
20
0.0
30
0.0
11
48.8148
21
-10.821981
31
0.0
12
49.450794
22
-7.3904676
32
0.0
13
49.450893
23
-7.3903675
33
1.0E-4
0
3DFACE
8
0
10
0.0
20
0.0
30
0.0
11
49.450794
21
-7.3904676
31
0.0
12
49.845867
22
-3.9229474
32
0.0
13
49.845966
23
-3.9228475
33
1.0E-4
0
3DFACE
8
0
10
0.0
20
0.0
30
0.0
11
49.845867
21
-3.9229474
31
0.0
12
50.0
22
0.0
32
0.0
13
50.0001
23
1.0E-4
33
1.0E-4
0
3DFACE
8
0
10
49.500305
20
-0.017449487
30
0.0
11
50.499695
21
0.017449487
31
0.0
12
50.3779
22
3.5052729
32
0.0
13
50.378
23
3.5053728
33
1.0E-4
0
3DFACE
8
0
10
50.3779
20
3.5052729
30
0.0
11
49.500305
21
-0.017449487
31
0.0
12
49.37851
22
3.470374
32
0.0
13
49.37861
23
3.470474
33
1.0E-4
0
3DFACE
8
0
10
49.380943
20
3.4355586
30
0.0
11
50.375465
21
3.5400884
31
0.0
12
50.010662
22
7.01092
32
0.0
13
50.01076
23
7.01102
33
1.0E-4
0
3DFACE
8
0
10
50.010662
20
7.01092
30
0.0
11
49.380943
21
3.4355586
31
0.0
12
49.01614
22
6.9063907
32
0.0
13
49.01624
23
6.906491
33
1.0E-4
0
3DFACE
8
0
10
49.020996
20
6.871832
30
0.0
11
50.005806
21
7.045479
31
0.0
12
49.399788
22
10.482409
32
0.0
13
49.399887
23
10.482509
33
1.0E-4
0
3DFACE
8
0
10
49.399788
20
10.482409
30
0.0
11
49.020996
21
6.871832
31
0.0
12
48.414978
22
10.308762
32
0.0
13
48.415077
23
10.308862
33
1.0E-4
0
3DFACE
8
0
10
48.422234
20
10.274624
30
0.0
11
49.392532
21
10.516546
31
0.0
12
48.548233
22
13.902829
32
0.0
13
48.548332
23
13.902929
33
1.0E-4
0
3DFACE
8
0
10
48.548233
20
13.902829
30
0.0
11
48.422234
21
10.274624
31
0.0
12
47.577934
22
13.660907
32
0.0
13
47.578033
23
13.661007
33
1.0E-4
0
3DFACE
8
0
10
47.587555
20
13.627359
30
0.0
11
48.538612
21
13.936377
31
0.0
12
47.46016
22
17.255514
32
0.0
13
47.46026
23
17.255613
33
1.0E-4
0
3DFACE
8
0
10
47.46016
20
17.255514
30
0.0
11
47.587555
21
13.627359
31
0.0
12
46.5091
22
16.946497
32
0.0
13
46.5092
23
16.946596
33
1.0E-4
0
3DFACE
8
0
10
46.521862
20
16.911682
30
0.0
11
47.4474
21
17.290329
31
0.0
12
45.960835
22
20.923985
32
0.0
13
45.960934
23
20.924084
33
1.0E-4
0
3DFACE
8
0
10
45.960835
20
20.923985
30
0.0
11
46.521862
21
16.911682
31
0.0
12
45.035297
22
20.545338
32
0.0
13
45.035397
23
20.545437
33
1.0E-4
0
3DFACE
8
0
10
45.0506
20
20.511562
30
0.0
11
45.945534
21
20.95776
31
0.0
12
44.388325
22
24.081036
32
0.0
13
44.388424
23
24.081135
33
1.0E-4
0
3DFACE
8
0
10
44.388325
20
24.081036
30
0.0
11
45.0506
21
20.511562
31
0.0
12
43.49339
22
23.634838
32
0.0
13
43.49349
23
23.634937
33
1.0E-4
0
3DFACE
8
0
10
43.510044
20
23.604168
30
0.0
11
44.37167
21
24.111706
31
0.0
12
42.600384
22
27.118752
32
0.0
13
42.600483
23
27.11885
33
1.0E-4
0
3DFACE
8
0
10
42.600384
20
27.118752
30
0.0
11
43.510044
21
23.604168
31
0.0
12
41.738758
22
26.611214
32
0.0
13
41.738857
23
26.611313
33
1.0E-4
0
3DFACE
8
0
10
41.757507
20
26.58178
30
0.0
11
42.581635
21
27.148186
31
0.0
12
40.604908
22
30.024342
32
0.0
13
40.605007
23
30.02444
33
1.0E-4
0
3DFACE
8
0
10
40.604908
20
30.024342
30
0.0
11
41.757507
21
26.58178
31
0.0
12
39.78078
22
29.457935
32
0.0
13
39.78088
23
29.458035
33
1.0E-4
0
3DFACE
8
0
10
39.80154
20
29.42988
30
0.0
11
40.58415
21
30.052397
31
0.0
12
38.411602
22
32.783657
32
0.0
13
38.4117
23
32.783756
33
1.0E-4
0
3DFACE
8
0
10
38.411602
20
32.783657
30
0.0
11
39.80154
21
29.42988
31
0.0
12
37.628994
22
32.161144
32
0.0
13
37.629093
23
32.161243
33
1.0E-4
0
3DFACE
8
0
10
37.65166
20
32.134605
30
0.0
11
38.388935
21
32.810196
31
0.0
12
36.03116
22
35.38326
32
0.0
13
36.031258
23
35.383358
33
1.0E-4
0
3DFACE
8
0
10
36.03116
20
35.38326
30
0.0
11
37.65166
21
32.134605
31
0.0
12
35.293884
22
34.70767
32
0.0
13
35.293983
23
34.707767
33
1.0E-4
0
3DFACE
8
0
10
35.31993
20
34.68128
30
0.0
11
36.00511
21
35.40965
31
0.0
12
33.145542
22
38.099663
32
0.0
13
33.14564
23
38.099762
33
1.0E-4
0
3DFACE
8
0
10
33.145542
20
38.099663
30
0.0
11
35.31993
21
34.68128
31
0.0
12
32.46036
22
37.371292
32
0.0
13
32.46046
23
37.37139
33
1.0E-4
0
3DFACE
8
0
10
32.488293
20
37.346905
30
0.0
11
33.11761
21
38.12405
31
0.0
12
30.405413
22
40.32035
32
0.0
13
30.405512
23
40.32045
33
1.0E-4
0
3DFACE
8
0
10
30.405413
20
40.32035
30
0.0
11
32.488293
21
37.346905
31
0.0
12
29.77609
22
39.543205
32
0.0
13
29.77619
23
39.543304
33
1.0E-4
0
3DFACE
8
0
10
29.803963
20
39.5222
30
0.0
11
30.37754
21
40.341354
31
0.0
12
27.518742
22
42.343105
32
0.0
13
27.51884
23
42.343204
33
1.0E-4
0
3DFACE
8
0
10
27.518742
20
42.343105
30
0.0
11
29.803963
21
39.5222
31
0.0
12
26.945164
22
41.523952
32
0.0
13
26.945263
23
41.52405
33
1.0E-4
0
3DFACE
8
0
10
26.974434
20
41.504944
30
0.0
11
27.489471
21
42.362114
31
0.0
12
24.497997
22
44.159573
32
0.0
13
24.498096
23
44.15967
33
1.0E-4
0
3DFACE
8
0
10
24.497997
20
44.159573
30
0.0
11
26.974434
21
41.504944
31
0.0
12
23.98296
22
43.302402
32
0.0
13
23.983059
23
43.3025
33
1.0E-4
0
3DFACE
8
0
10
24.013483
20
43.285484
30
0.0
11
24.467474
21
44.17649
31
0.0
12
21.357908
22
45.760895
32
0.0
13
21.358007
23
45.760994
33
1.0E-4
0
3DFACE
8
0
10
21.357908
20
45.760895
30
0.0
11
24.013483
21
43.285484
31
0.0
12
20.903917
22
44.86989
32
0.0
13
20.904016
23
44.869987
33
1.0E-4
0
3DFACE
8
0
10
20.937557
20
44.85429
30
0.0
11
21.324268
21
45.776493
31
0.0
12
17.703722
22
47.294712
32
0.0
13
17.703821
23
47.29481
33
1.0E-4
0
3DFACE
8
0
10
17.703722
20
47.294712
30
0.0
11
20.937557
21
44.85429
31
0.0
12
17.31701
22
46.37251
32
0.0
13
17.31711
23
46.37261
33
1.0E-4
0
3DFACE
8
0
10
17.351715
20
46.359447
30
0.0
11
17.669018
21
47.307774
31
0.0
12
14.359419
22
48.41515
32
0.0
13
14.359519
23
48.41525
33
1.0E-4
0
3DFACE
8
0
10
14.359419
20
48.41515
30
0.0
11
17.351715
21
46.359447
31
0.0
12
14.042114
22
47.466824
32
0.0
13
14.042214
23
47.466923
33
1.0E-4
0
3DFACE
8
0
10
14.075577
20
47.456913
30
0.0
11
14.325956
21
48.42506
31
0.0
12
10.947172
22
49.298874
32
0.0
13
10.947272
23
49.298973
33
1.0E-4
0
3DFACE
8
0
10
10.947172
20
49.298874
30
0.0
11
14.075577
21
47.456913
31
0.0
12
10.696793
22
48.330727
32
0.0
13
10.696893
23
48.330826
33
1.0E-4
0
3DFACE
8
0
10
10.730865
20
48.323174
30
0.0
11
10.9131
21
49.306427
31
0.0
12
7.4815917
22
49.94242
32
0.0
13
7.481692
23
49.94252
33
1.0E-4
0
3DFACE
8
0
10
7.4815917
20
49.94242
30
0.0
11
10.730865
21
48.323174
31
0.0
12
7.299356
22
48.959167
32
0.0
13
7.299456
23
48.959267
33
1.0E-4
0
3DFACE
8
0
10
7.3338723
20
48.95401
30
0.0
11
7.4470754
21
49.94758
31
0.0
12
3.9795556
22
50.34265
32
0.0
13
3.9796555
23
50.34275
33
1.0E-4
0
3DFACE
8
0
10
3.9795556
20
50.34265
30
0.0
11
7.3338723
21
48.95401
31
0.0
12
3.8663526
22
49.349083
32
0.0
13
3.8664525
23
49.349182
33
1.0E-4
0
3DFACE
8
0
10
3.9033241
20
49.346252
30
0.0
11
3.942584
21
50.34548
31
0.0
12
0.019627657
22
50.499615
32
0.0
13
0.019727657
23
50.499714
33
1.0E-4
0
3DFACE
8
0
10
0.019627657
20
50.499615
30
0.0
11
3.9033241
21
49.346252
31
0.0
12
-0.019632027
22
49.500385
32
0.0
13
-0.019532027
23
49.500484
33
1.0E-4
0
3DFACE
8
0
10
0.01744731
20
49.500305
30
0.0
11
-0.01745168
21
50.499695
31
0.0
12
-3.5052733
22
50.3779
32
0.0
13
-3.5051734
23
50.378
33
1.0E-4
0
3DFACE
8
0
10
-3.5052733
20
50.3779
30
0.0
11
0.01744731
21
49.500305
31
0.0
12
-3.4703746
22
49.37851
32
0.0
13
-3.4702747
23
49.37861
33
1.0E-4
0
3DFACE
8
0
10
-3.435559
20
49.380943
30
0.0
11
-3.540089
21
50.375465
31
0.0
12
-7.0109186
22
50.010662
32
0.0
13
-7.0108185
23
50.01076
33
1.0E-4
0
3DFACE
8
0
10
-7.0109186
20
50.010662
30
0.0
11
-3.435559
21
49.380943
31
0.0
12
-6.906389
22
49.01614
32
0.0
13
-6.906289
23
49.01624
33
1.0E-4
0
3DFACE
8
0
10
-6.8718305
20
49.020996
30
0.0
11
-7.0454774
21
50.005806
31
0.0
12
-10.482405
22
49.399788
32
0.0
13
-10.482305
23
49.399887
33
1.0E-4
0
3DFACE
8
0
10
-10.482405
20
49.399788
30
0.0
11
-6.8718305
21
49.020996
31
0.0
12
-10.308758
22
48.414978
32
0.0
13
-10.308658
23
48.415077
33
1.0E-4
0
3DFACE
8
0
10
-10.27462
20
48.422234
30
0.0
11
-10.516542
21
49.392532
31
0.0
12
-13.902829
22
48.548233
32
0.0
13
-13.902729
23
48.548332
33
1.0E-4
0
3DFACE
8
0
10
-13.902829
20
48.548233
30
0.0
11
-10.27462
21
48.422234
31
0.0
12
-13.660907
22
47.577934
32
0.0
13
-13.660807
23
47.578033
33
1.0E-4
0
3DFACE
8
0
10
-13.627359
20
47.587555
30
0.0
11
-13.936377
21
48.538612
31
0.0
12
-17.255514
22
47.46016
32
0.0
13
-17.255415
23
47.46026
33
1.0E-4
0
3DFACE
8
0
10
-17.255514
20
47.46016
30
0.0
11
-13.627359
21
47.587555
31
0.0
12
-16.946497
22
46.5091
32
0.0
13
-16.946398
23
46.5092
33
1.0E-4
0
3DFACE
8
0
10
-16.911682
20
46.521862
30
0.0
11
-17.290329
21
47.4474
31
0.0
12
-20.923985
22
45.960835
32
0.0
13
-20.923885
23
45.960934
33
1.0E-4
0
3DFACE
8
0
10
-20.923985
20
45.960835
30
0.0
11
-16.911682
21
46.521862
31
0.0
12
-20.545338
22
45.035297
32
0.0
13
-20.545238
23
45.035397
33
1.0E-4
0
3DFACE
8
0
10
-20.511562
20
45.0506
30
0.0
11
-20.95776
21
45.945534
31
0.0
12
-24.081036
22
44.388325
32
0.0
13
-24.080936
23
44.388424
33
1.0E-4
0
3DFACE
8
0
10
-24.081036
20
44.388325
30
0.0
11
-20.511562
21
45.0506
31
0.0
12
-23.634838
22
43.49339
32
0.0
13
-23.634739
23
43.49349
33
1.0E-4
0
3DFACE
8
0
10
-23.604168
20
43.510044
30
0.0
11
-24.111706
21
44.37167
31
0.0
12
-27.118752
22
42.600384
32
0.0
13
-27.118652
23
42.600483
33
1.0E-4
0
3DFACE
8
0
10
-27.118752
20
42.600384
30
0.0
11
-23.604168
21
43.510044
31
0.0
12
-26.611214
22
41.738758
32
0.0
13
-26.611115
23
41.738857
33
1.0E-4
0
3DFACE
8
0
10
-26.58178
20
41.757507
30
0.0
11
-27.148186
21
42.581635
31
0.0
12
-30.024338
22
40.604908
32
0.0
13
-30.024239
23
40.605007
33
1.0E-4
0
3DFACE
8
0
10
-30.024338
20
40.604908
30
0.0
11
-26.58178
21
41.757507
31
0.0
12
-29.457932
22
39.78078
32
0.0
13
-29.457832
23
39.78088
33
1.0E-4
0
3DFACE
8
0
10
-29.429878
20
39.80154
30
0.0
11
-30.052391
21
40.58415
31
0.0
12
-32.783657
22
38.411602
32
0.0
13
-32.783558
23
38.4117
33
1.0E-4
0
3DFACE
8
0
10
-32.783657
20
38.411602
30
0.0
11
-29.429878
21
39.80154
31
0.0
12
-32.161144
22
37.628994
32
0.0
13
-32.161045
23
37.629093
33
1.0E-4
0
3DFACE
8
0
10
-32.133
20
37.653137
30
0.0
11
-32.811802
21
38.38746
31
0.0
12
-35.69474
22
35.7225
32
0.0
13
-35.69464
23
35.7226
33
1.0E-4
0
3DFACE
8
0
10
-35.69474
20
35.7225
30
0.0
11
-32.133
21
37.653137
31
0.0
12
-35.015938
22
34.98818
32
0.0
13
-35.01584
23
34.988277
33
1.0E-4
0
3DFACE
8
0
10
-34.989662
20
35.01434
30
0.0
11
-35.721016
21
35.69634
31
0.0
12
-38.10116
22
33.143948
32
0.0
13
-38.10106
23
33.144047
33
1.0E-4
0
3DFACE
8
0
10
-38.10116
20
33.143948
30
0.0
11
-34.989662
21
35.01434
31
0.0
12
-37.369804
22
32.46195
32
0.0
13
-37.369705
23
32.462048
33
1.0E-4
0
3DFACE
8
0
10
-37.34691
20
32.48829
30
0.0
11
-38.124054
21
33.117607
31
0.0
12
-40.320347
22
30.405416
32
0.0
13
-40.320248
23
30.405516
33
1.0E-4
0
3DFACE
8
0
10
-40.320347
20
30.405416
30
0.0
11
-37.34691
21
32.48829
31
0.0
12
-39.5432
22
29.776094
32
0.0
13
-39.543102
23
29.776194
33
1.0E-4
0
3DFACE
8
0
10
-39.522198
20
29.803967
30
0.0
11
-40.34135
21
30.377544
31
0.0
12
-42.343105
22
27.518742
32
0.0
13
-42.343006
23
27.51884
33
1.0E-4
0
3DFACE
8
0
10
-42.343105
20
27.518742
30
0.0
11
-39.522198
21
29.803967
31
0.0
12
-41.523952
22
26.945164
32
0.0
13
-41.523853
23
26.945263
33
1.0E-4
0
3DFACE
8
0
10
-41.504944
20
26.974434
30
0.0
11
-42.362114
21
27.489471
31
0.0
12
-44.159573
22
24.497995
32
0.0
13
-44.159473
23
24.498095
33
1.0E-4
0
3DFACE
8
0
10
-44.159573
20
24.497995
30
0.0
11
-41.504944
21
26.974434
31
0.0
12
-43.302402
22
23.982958
32
0.0
13
-43.302303
23
23.983057
33
1.0E-4
0
3DFACE
8
0
10
-43.285484
20
24.013481
30
0.0
11
-44.17649
21
24.467472
31
0.0
12
-45.76089
22
21.357912
32
0.0
13
-45.76079
23
21.358011
33
1.0E-4
0
3DFACE
8
0
10
-45.76089
20
21.357912
30
0.0
11
-43.285484
21
24.013481
31
0.0
12
-44.869884
22
20.903921
32
0.0
13
-44.869785
23
20.90402
33
1.0E-4
0
3DFACE
8
0
10
-44.854286
20
20.937561
30
0.0
11
-45.77649
21
21.324272
31
0.0
12
-47.29471
22
17.703726
32
0.0
13
-47.29461
23
17.703825
33
1.0E-4
0
3DFACE
8
0
10
-47.29471
20
17.703726
30
0.0
11
-44.854286
21
20.937561
31
0.0
12
-46.372505
22
17.317015
32
0.0
13
-46.372406
23
17.317114
33
1.0E-4
0
3DFACE
8
0
10
-46.359444
20
17.351717
30
0.0
11
-47.30777
21
17.669024
31
0.0
12
-48.41515
22
14.359417
32
0.0
13
-48.41505
23
14.359517
33
1.0E-4
0
3DFACE
8
0
10
-48.41515
20
14.359417
30
0.0
11
-46.359444
21
17.351717
31
0.0
12
-47.466824
22
14.042112
32
0.0
13
-47.466724
23
14.0422125
33
1.0E-4
0
3DFACE
8
0
10
-47.456913
20
14.075574
30
0.0
11
-48.42506
21
14.325955
31
0.0
12
-49.298874
22
10.947177
32
0.0
13
-49.298775
23
10.947277
33
1.0E-4
0
3DFACE
8
0
10
-49.298874
20
10.947177
30
0.0
11
-47.456913
21
14.075574
31
0.0
12
-48.330727
22
10.696795
32
0.0
13
-48.330627
23
10.696896
33
1.0E-4
0
3DFACE
8
0
10
-48.323174
20
10.730868
30
0.0
11
-49.306427
21
10.913104
31
0.0
12
-49.94242
22
7.4815893
32
0.0
13
-49.94232
23
7.4816895
33
1.0E-4
0
3DFACE
8
0
10
-49.94242
20
7.4815893
30
0.0
11
-48.323174
21
10.730868
31
0.0
12
-48.959167
22
7.2993536
32
0.0
13
-48.95907
23
7.2994537
33
1.0E-4
0
3DFACE
8
0
10
-48.95401
20
7.33387
30
0.0
11
-49.94758
21
7.447073
31
0.0
12
-50.34265
22
3.9795535
32
0.0
13
-50.342552
23
3.9796534
33
1.0E-4
0
3DFACE
8
0
10
-50.34265
20
3.9795535
30
0.0
11
-48.95401
21
7.33387
31
0.0
12
-49.349083
22
3.8663504
32
0.0
13
-49.348984
23
3.8664503
33
1.0E-4
0
3DFACE
8
0
10
-49.346252
20
3.903322
30
0.0
11
-50.34548
21
3.942582
31
0.0
12
-50.499615
22
0.01962547
32
0.0
13
-50.499516
23
0.01972547
33
1.0E-4
0
3DFACE
8
0
10
-50.499615
20
0.01962547
30
0.0
11
-49.346252
21
3.903322
31
0.0
12
-49.500385
22
-0.019634213
32
0.0
13
-49.500286
23
-0.019534213
33
1.0E-4
0
3DFACE
8
0
10
-49.500305
20
0.017445153
30
0.0
11
-50.499695
21
-0.017453896
31
0.0
12
-50.3779
22
-3.5052698
32
0.0
13
-50.3778
23
-3.5051699
33
1.0E-4
0
3DFACE
8
0
10
-50.3779
20
-3.5052698
30
0.0
11
-49.500305
21
0.017445153
31
0.0
12
-49.37851
22
-3.4703705
32
0.0
13
-49.37841
23
-3.4702706
33
1.0E-4
0
3DFACE
8
0
10
-49.380943
20
-3.4355555
30
0.0
11
-50.375465
21
-3.5400848
31
0.0
12
-50.010662
22
-7.01092
32
0.0
13
-50.010563
23
-7.01082
33
1.0E-4
0
3DFACE
8
0
10
-50.010662
20
-7.01092
30
0.0
11
-49.380943
21
-3.4355555
31
0.0
12
-49.01614
22
-6.9063907
32
0.0
13
-49.01604
23
-6.9062905
33
1.0E-4
0
3DFACE
8
0
10
-49.020996
20
-6.8718314
30
0.0
11
-50.005806
21
-7.0454793
31
0.0
12
-49.399784
22
-10.482413
32
0.0
13
-49.399685
23
-10.482313
33
1.0E-4
0
3DFACE
8
0
10
-49.399784
20
-10.482413
30
0.0
11
-49.020996
21
-6.8718314
31
0.0
12
-48.414974
22
-10.308766
32
0.0
13
-48.414875
23
-10.308666
33
1.0E-4
0
3DFACE
8
0
10
-48.42223
20
-10.274629
30
0.0
11
-49.39253
21
-10.516551
31
0.0
12
-48.548233
22
-13.902826
32
0.0
13
-48.548134
23
-13.902726
33
1.0E-4
0
3DFACE
8
0
10
-48.548233
20
-13.902826
30
0.0
11
-48.42223
21
-10.274629
31
0.0
12
-47.577934
22
-13.660904
32
0.0
13
-47.577835
23
-13.660804
33
1.0E-4
0
3DFACE
8
0
10
-47.587555
20
-13.627357
30
0.0
11
-48.538612
21
-13.936374
31
0.0
12
-47.46016
22
-17.255516
32
0.0
13
-47.46006
23
-17.255417
33
1.0E-4
0
3DFACE
8
0
10
-47.46016
20
-17.255516
30
0.0
11
-47.587555
21
-13.627357
31
0.0
12
-46.5091
22
-16.946499
32
0.0
13
-46.509003
23
-16.9464
33
1.0E-4
0
3DFACE
8
0
10
-46.521862
20
-16.911684
30
0.0
11
-47.4474
21
-17.29033
31
0.0
12
-45.96083
22
-20.923988
32
0.0
13
-45.96073
23
-20.92389
33
1.0E-4
0
3DFACE
8
0
10
-45.96083
20
-20.923988
30
0.0
11
-46.521862
21
-16.911684
31
0.0
12
-45.035294
22
-20.545341
32
0.0
13
-45.035194
23
-20.545242
33
1.0E-4
0
3DFACE
8
0
10
-45.050594
20
-20.511566
30
0.0
11
-45.94553
21
-20.957764
31
0.0
12
-44.388325
22
-24.081032
32
0.0
13
-44.388226
23
-24.080933
33
1.0E-4
0
3DFACE
8
0
10
-44.388325
20
-24.081032
30
0.0
11
-45.050594
21
-20.511566
31
0.0
12
-43.49339
22
-23.634834
32
0.0
13
-43.49329
23
-23.634735
33
1.0E-4
0
3DFACE
8
0
10
-43.51004
20
-23.604164
30
0.0
11
-44.371674
21
-24.111702
31
0.0
12
-42.60039
22
-27.118748
32
0.0
13
-42.600292
23
-27.118649
33
1.0E-4
0
3DFACE
8
0
10
-42.60039
20
-27.118748
30
0.0
11
-43.51004
21
-23.604164
31
0.0
12
-41.738758
22
-26.61121
32
0.0
13
-41.73866
23
-26.61111
33
1.0E-4
0
3DFACE
8
0
10
-41.75751
20
-26.581776
30
0.0
11
-42.58164
21
-27.148182
31
0.0
12
-40.604904
22
-30.024343
32
0.0
13
-40.604805
23
-30.024244
33
1.0E-4
0
3DFACE
8
0
10
-40.604904
20
-30.024343
30
0.0
11
-41.75751
21
-26.581776
31
0.0
12
-39.780777
22
-29.457937
32
0.0
13
-39.780678
23
-29.457838
33
1.0E-4
0
3DFACE
8
0
10
-39.801537
20
-29.429884
30
0.0
11
-40.584145
21
-30.052397
31
0.0
12
-38.411606
22
-32.783657
32
0.0
13
-38.411507
23
-32.783558
33
1.0E-4
0
3DFACE
8
0
10
-38.411606
20
-32.783657
30
0.0
11
-39.801537
21
-29.429884
31
0.0
12
-37.628998
22
-32.161144
32
0.0
13
-37.6289
23
-32.161045
33
1.0E-4
0
3DFACE
8
0
10
-37.65314
20
-32.133
30
0.0
11
-38.387463
21
-32.811802
31
0.0
12
-35.722504
22
-35.694736
32
0.0
13
-35.722404
23
-35.694637
33
1.0E-4
0
3DFACE
8
0
10
-35.722504
20
-35.694736
30
0.0
11
-37.65314
21
-32.133
31
0.0
12
-34.988182
22
-35.015934
32
0.0
13
-34.988083
23
-35.015835
33
1.0E-4
0
3DFACE
8
0
10
-35.014343
20
-34.98966
30
0.0
11
-35.696342
21
-35.721012
31
0.0
12
-33.14395
22
-38.10116
32
0.0
13
-33.143852
23
-38.10106
33
1.0E-4
0
3DFACE
8
0
10
-33.14395
20
-38.10116
30
0.0
11
-35.014343
21
-34.98966
31
0.0
12
-32.461952
22
-37.369804
32
0.0
13
-32.461853
23
-37.369705
33
1.0E-4
0
3DFACE
8
0
10
-32.488293
20
-37.34691
30
0.0
11
-33.11761
21
-38.124054
31
0.0
12
-30.405416
22
-40.320343
32
0.0
13
-30.405317
23
-40.320244
33
1.0E-4
0
3DFACE
8
0
10
-30.405416
20
-40.320343
30
0.0
11
-32.488293
21
-37.34691
31
0.0
12
-29.776098
22
-39.543198
32
0.0
13
-29.776
23
-39.5431
33
1.0E-4
0
3DFACE
8
0
10
-29.803968
20
-39.522194
30
0.0
11
-30.377546
21
-40.341347
31
0.0
12
-27.518745
22
-42.343105
32
0.0
13
-27.518646
23
-42.343006
33
1.0E-4
0
3DFACE
8
0
10
-27.518745
20
-42.343105
30
0.0
11
-29.803968
21
-39.522194
31
0.0
12
-26.945168
22
-41.523952
32
0.0
13
-26.945068
23
-41.523853
33
1.0E-4
0
3DFACE
8
0
10
-26.974438
20
-41.504944
30
0.0
11
-27.489475
21
-42.362114
31
0.0
12
-24.498
22
-44.159573
32
0.0
13
-24.4979
23
-44.159473
33
1.0E-4
0
3DFACE
8
0
10
-24.498
20
-44.159573
30
0.0
11
-26.974438
21
-41.504944
31
0.0
12
-23.982962
22
-43.302402
32
0.0
13
-23.982862
23
-43.302303
33
1.0E-4
0
3DFACE
8
0
10
-24.013485
20
-43.285484
30
0.0
11
-24.467476
21
-44.17649
31
0.0
12
-21.357904
22
-45.760895
32
0.0
13
-21.357805
23
-45.760796
33
1.0E-4
0
3DFACE
8
0
10
-21.357904
20
-45.760895
30
0.0
11
-24.013485
21
-43.285484
31
0.0
12
-20.903913
22
-44.86989
32
0.0
13
-20.903814
23
-44.86979
33
1.0E-4
0
3DFACE
8
0
10
-20.937553
20
-44.85429
30
0.0
11
-21.324265
21
-45.776493
31
0.0
12
-17.703718
22
-47.294712
32
0.0
13
-17.703619
23
-47.294613
33
1.0E-4
0
3DFACE
8
0
10
-17.703718
20
-47.294712
30
0.0
11
-20.937553
21
-44.85429
31
0.0
12
-17.317007
22
-46.37251
32
0.0
13
-17.316908
23
-46.37241
33
1.0E-4
0
3DFACE
8
0
10
-17.35171
20
-46.359447
30
0.0
11
-17.669016
21
-47.307774
31
0.0
12
-14.359432
22
-48.415146
32
0.0
13
-14.359332
23
-48.415047
33
1.0E-4
0
3DFACE
8
0
10
-14.359432
20
-48.415146
30
0.0
11
-17.35171
21
-46.359447
31
0.0
12
-14.042128
22
-47.46682
32
0.0
13
-14.042027
23
-47.46672
33
1.0E-4
0
3DFACE
8
0
10
-14.07559
20
-47.45691
30
0.0
11
-14.32597
21
-48.425056
31
0.0
12
-10.94718
22
-49.29887
32
0.0
13
-10.94708
23
-49.29877
33
1.0E-4
0
3DFACE
8
0
10
-10.94718
20
-49.29887
30
0.0
11
-14.07559
21
-47.45691
31
0.0
12
-10.6968
22
-48.330723
32
0.0
13
-10.6967
23
-48.330624
33
1.0E-4
0
3DFACE
8
0
10
-10.730872
20
-48.32317
30
0.0
11
-10.913108
21
-49.306423
31
0.0
12
-7.4815936
22
-49.94242
32
0.0
13
-7.4814935
23
-49.94232
33
1.0E-4
0
3DFACE
8
0
10
-7.4815936
20
-49.94242
30
0.0
11
-10.730872
21
-48.32317
31
0.0
12
-7.299357
22
-48.959167
32
0.0
13
-7.299257
23
-48.95907
33
1.0E-4
0
3DFACE
8
0
10
-7.3338737
20
-48.95401
30
0.0
11
-7.447077
21
-49.94758
31
0.0
12
-3.9795573
22
-50.34265
32
0.0
13
-3.9794574
23
-50.342552
33
1.0E-4
0
3DFACE
8
0
10
-3.9795573
20
-50.34265
30
0.0
11
-7.3338737
21
-48.95401
31
0.0
12
-3.8663542
22
-49.349083
32
0.0
13
-3.8662543
23
-49.348984
33
1.0E-4
0
3DFACE
8
0
10
-3.9033258
20
-49.346252
30
0.0
11
-3.9425857
21
-50.34548
31
0.0
12
-0.019629244
22
-50.499615
32
0.0
13
-0.019529244
23
-50.499516
33
1.0E-4
0
3DFACE
8
0
10
-0.019629244
20
-50.499615
30
0.0
11
-3.9033258
21
-49.346252
31
0.0
12
0.019630436
22
-49.500385
32
0.0
13
0.019730436
23
-49.500286
33
1.0E-4
0
3DFACE
8
0
10
-0.017449416
20
-49.500305
30
0.0
11
0.017450608
21
-50.499695
31
0.0
12
3.5052783
22
-50.377895
32
0.0
13
3.5053782
23
-50.377796
33
1.0E-4
0
3DFACE
8
0
10
3.5052783
20
-50.377895
30
0.0
11
-0.017449416
21
-49.500305
31
0.0
12
3.4703782
22
-49.378506
32
0.0
13
3.470478
23
-49.378407
33
1.0E-4
0
3DFACE
8
0
10
3.435564
20
-49.38094
30
0.0
11
3.5400925
21
-50.37546
31
0.0
12
7.0109277
22
-50.010662
32
0.0
13
7.011028
23
-50.010563
33
1.0E-4
0
3DFACE
8
0
10
7.0109277
20
-50.010662
30
0.0
11
3.435564
21
-49.38094
31
0.0
12
6.9063993
22
-49.01614
32
0.0
13
6.9064994
23
-49.01604
33
1.0E-4
0
3DFACE
8
0
10
6.8718395
20
-49.020996
30
0.0
11
7.0454874
21
-50.005806
31
0.0
12
10.482397
22
-49.399788
32
0.0
13
10.482497
23
-49.39969
33
1.0E-4
0
3DFACE
8
0
10
10.482397
20
-49.399788
30
0.0
11
6.8718395
21
-49.020996
31
0.0
12
10.30875
22
-48.414978
32
0.0
13
10.30885
23
-48.41488
33
1.0E-4
0
3DFACE
8
0
10
10.274612
20
-48.422234
30
0.0
11
10.516535
21
-49.392532
31
0.0
12
13.902822
22
-48.548237
32
0.0
13
13.902922
23
-48.548138
33
1.0E-4
0
3DFACE
8
0
10
13.902822
20
-48.548237
30
0.0
11
10.274612
21
-48.422234
31
0.0
12
13.660899
22
-47.577938
32
0.0
13
13.660999
23
-47.57784
33
1.0E-4
0
3DFACE
8
0
10
13.627352
20
-47.58756
30
0.0
11
13.936369
21
-48.538616
31
0.0
12
17.255514
22
-47.46016
32
0.0
13
17.255613
23
-47.46006
33
1.0E-4
0
3DFACE
8
0
10
17.255514
20
-47.46016
30
0.0
11
13.627352
21
-47.58756
31
0.0
12
16.946497
22
-46.5091
32
0.0
13
16.946596
23
-46.509003
33
1.0E-4
0
3DFACE
8
0
10
16.911682
20
-46.521862
30
0.0
11
17.290329
21
-47.4474
31
0.0
12
20.923985
22
-45.960835
32
0.0
13
20.924084
23
-45.960735
33
1.0E-4
0
3DFACE
8
0
10
20.923985
20
-45.960835
30
0.0
11
16.911682
21
-46.521862
31
0.0
12
20.545338
22
-45.035297
32
0.0
13
20.545437
23
-45.0352
33
1.0E-4
0
3DFACE
8
0
10
20.511562
20
-45.0506
30
0.0
11
20.95776
21
-45.945534
31
0.0
12
24.08104
22
-44.38832
32
0.0
13
24.081139
23
-44.38822
33
1.0E-4
0
3DFACE
8
0
10
24.08104
20
-44.38832
30
0.0
11
20.511562
21
-45.0506
31
0.0
12
23.634842
22
-43.493385
32
0.0
13
23.634941
23
-43.493286
33
1.0E-4
0
3DFACE
8
0
10
23.604172
20
-43.51004
30
0.0
11
24.11171
21
-44.371666
31
0.0
12
27.118757
22
-42.60038
32
0.0
13
27.118856
23
-42.60028
33
1.0E-4
0
3DFACE
8
0
10
27.118757
20
-42.60038
30
0.0
11
23.604172
21
-43.51004
31
0.0
12
26.61122
22
-41.738754
32
0.0
13
26.611319
23
-41.738655
33
1.0E-4
0
3DFACE
8
0
10
26.581785
20
-41.757504
30
0.0
11
27.148191
21
-42.58163
31
0.0
12
30.024332
22
-40.604916
32
0.0
13
30.024431
23
-40.604816
33
1.0E-4
0
3DFACE
8
0
10
30.024332
20
-40.604916
30
0.0
11
26.581785
21
-41.757504
31
0.0
12
29.457926
22
-39.78079
32
0.0
13
29.458025
23
-39.78069
33
1.0E-4
0
3DFACE
8
0
10
29.429873
20
-39.801548
30
0.0
11
30.052385
21
-40.584156
31
0.0
12
32.783653
22
-38.41161
32
0.0
13
32.783752
23
-38.41151
33
1.0E-4
0
3DFACE
8
0
10
32.783653
20
-38.41161
30
0.0
11
29.429873
21
-39.801548
31
0.0
12
32.16114
22
-37.629
32
0.0
13
32.16124
23
-37.628902
33
1.0E-4
0
3DFACE
8
0
10
32.132996
20
-37.653145
30
0.0
11
32.8118
21
-38.387466
31
0.0
12
35.694733
22
-35.722504
32
0.0
13
35.69483
23
-35.722404
33
1.0E-4
0
3DFACE
8
0
10
35.694733
20
-35.722504
30
0.0
11
32.132996
21
-37.653145
31
0.0
12
35.01593
22
-34.988182
32
0.0
13
35.01603
23
-34.988083
33
1.0E-4
0
3DFACE
8
0
10
34.989655
20
-35.014343
30
0.0
11
35.72101
21
-35.696342
31
0.0
12
38.101154
22
-33.143955
32
0.0
13
38.101254
23
-33.143856
33
1.0E-4
0
3DFACE
8
0
10
38.101154
20
-33.143955
30
0.0
11
34.989655
21
-35.014343
31
0.0
12
37.3698
22
-32.461956
32
0.0
13
37.3699
23
-32.461857
33
1.0E-4
0
3DFACE
8
0
10
37.346905
20
-32.488297
30
0.0
11
38.12405
21
-33.117615
31
0.0
12
40.32035
22
-30.40541
32
0.0
13
40.32045
23
-30.405312
33
1.0E-4
0
3DFACE
8
0
10
40.32035
20
-30.40541
30
0.0
11
37.346905
21
-32.488297
31
0.0
12
39.543205
22
-29.776089
32
0.0
13
39.543304
23
-29.77599
33
1.0E-4
0
3DFACE
8
0
10
39.5222
20
-29.803963
30
0.0
11
40.341354
21
-30.377537
31
0.0
12
42.343105
22
-27.518734
32
0.0
13
42.343204
23
-27.518635
33
1.0E-4
0
3DFACE
8
0
10
42.343105
20
-27.518734
30
0.0
11
39.5222
21
-29.803963
31
0.0
12
41.523952
22
-26.94516
32
0.0
13
41.52405
23
-26.94506
33
1.0E-4
0
3DFACE
8
0
10
41.504944
20
-26.974428
30
0.0
11
42.362114
21
-27.489466
31
0.0
12
44.159573
22
-24.497992
32
0.0
13
44.15967
23
-24.497892
33
1.0E-4
0
3DFACE
8
0
10
44.159573
20
-24.497992
30
0.0
11
41.504944
21
-26.974428
31
0.0
12
43.302402
22
-23.982954
32
0.0
13
43.3025
23
-23.982855
33
1.0E-4
0
3DFACE
8
0
10
43.285484
20
-24.013477
30
0.0
11
44.17649
21
-24.467468
31
0.0
12
45.760887
22
-21.357918
32
0.0
13
45.760986
23
-21.357819
33
1.0E-4
0
3DFACE
8
0
10
45.760887
20
-21.357918
30
0.0
11
43.285484
21
-24.013477
31
0.0
12
44.86988
22
-20.903927
32
0.0
13
44.86998
23
-20.903828
33
1.0E-4
0
3DFACE
8
0
10
44.854282
20
-20.937567
30
0.0
11
45.776485
21
-21.324278
31
0.0
12
47.29471
22
-17.703733
32
0.0
13
47.294807
23
-17.703634
33
1.0E-4
0
3DFACE
8
0
10
47.29471
20
-17.703733
30
0.0
11
44.854282
21
-20.937567
31
0.0
12
46.372505
22
-17.317022
32
0.0
13
46.372604
23
-17.316923
33
1.0E-4
0
3DFACE
8
0
10
46.359444
20
-17.351727
30
0.0
11
47.30777
21
-17.66903
31
0.0
12
48.415146
22
-14.359425
32
0.0
13
48.415245
23
-14.359324
33
1.0E-4
0
3DFACE
8
0
10
48.415146
20
-14.359425
30
0.0
11
46.359444
21
-17.351727
31
0.0
12
47.46682
22
-14.04212
32
0.0
13
47.46692
23
-14.04202
33
1.0E-4
0
3DFACE
8
0
10
47.45691
20
-14.075582
30
0.0
11
48.425056
21
-14.325963
31
0.0
12
49.298874
22
-10.947172
32
0.0
13
49.298973
23
-10.947072
33
1.0E-4
0
3DFACE
8
0
10
49.298874
20
-10.947172
30
0.0
11
47.45691
21
-14.075582
31
0.0
12
48.330727
22
-10.696791
32
0.0
13
48.330826
23
-10.696691
33
1.0E-4
0
3DFACE
8
0
10
48.323174
20
-10.730864
30
0.0
11
49.306427
21
-10.913099
31
0.0
12
49.94242
22
-7.4815855
32
0.0
13
49.94252
23
-7.4814854
33
1.0E-4
0
3DFACE
8
0
10
49.94242
20
-7.4815855
30
0.0
11
48.323174
21
-10.730864
31
0.0
12
48.959167
22
-7.29935
32
0.0
13
48.959267
23
-7.2992496
33
1.0E-4
0
3DFACE
8
0
10
48.95401
20
-7.333866
30
0.0
11
49.94758
21
-7.447069
31
0.0
12
50.34265
22
-3.979549
32
0.0
13
50.34275
23
-3.979449
33
1.0E-4
0
3DFACE
8
0
10
50.34265
20
-3.979549
30
0.0
11
48.95401
21
-7.333866
31
0.0
12
49.349083
22
-3.866346
32
0.0
13
49.349182
23
-3.866246
33
1.0E-4
0
3DFACE
8
0
10
49.346252
20
-3.9033175
30
0.0
11
50.34548
21
-3.9425774
31
0.0
12
50.499615
22
-0.019629885
32
0.0
13
50.499714
23
-0.019529885
33
1.0E-4
0
3DFACE
8
0
10
50.499615
20
-0.019629885
30
0.0
11
49.346252
21
-3.9033175
31
0.0
12
49.500385
22
0.019629885
32
0.0
13
49.500484
23
0.019729884
33
1.0E-4
0
3DFACE
8
0
10
201.71881
20
-52.81067
30
0.0
11
204.95502
21
-61.529846
31
0.0
12
205.69916
22
-49.784668
32
0.0
13
205.69926
23
-49.78457
33
1.0E-4
0
3DFACE
8
0
10
205.8067
20
-70.83536
30
0.0
11
205.69916
21
-49.784668
31
0.0
12
204.95502
22
-61.529846
32
0.0
13
204.95512
23
-61.529747
33
1.0E-4
0
3DFACE
8
0
10
205.69916
20
-49.784668
30
0.0
11
205.8067
21
-70.83536
31
0.0
12
209.6236
22
-59.739685
32
0.0
13
209.6237
23
-59.739586
33
1.0E-4
0
3DFACE
8
0
10
210.03583
20
-90.64288
30
0.0
11
209.6236
21
-59.739685
31
0.0
12
205.8067
22
-70.83536
32
0.0
13
205.80681
23
-70.83526
33
1.0E-4
0
3DFACE
8
0
10
209.6236
20
-59.739685
30
0.0
11
210.03583
21
-90.64288
31
0.0
12
210.32928
22
-80.689026
32
0.0
13
210.32939
23
-80.68893
33
1.0E-4
0
3DFACE
8
0
10
100.05792
20
-1.9874268
30
0.0
11
109.03757
21
-3.8058777
31
0.0
12
109.95224
22
1.1097717
32
0.0
13
109.95234
23
1.1098717
33
1.0E-4
0
3DFACE
8
0
10
118.57172
20
-6.232849
30
0.0
11
109.95224
21
1.1097717
31
0.0
12
109.03757
22
-3.8058777
32
0.0
13
109.03767
23
-3.8057778
33
1.0E-4
0
3DFACE
8
0
10
109.95224
20
1.1097717
30
0.0
11
118.57172
21
-6.232849
31
0.0
12
119.80255
22
-1.3867188
32
0.0
13
119.80265
23
-1.3866187
33
1.0E-4
0
3DFACE
8
0
10
126.07373
20
-11.479553
30
0.0
11
119.80255
21
-1.3867188
31
0.0
12
118.57172
22
-6.232849
32
0.0
13
118.571815
23
-6.232749
33
1.0E-4
0
3DFACE
8
0
10
119.80255
20
-1.3867188
30
0.0
11
126.07373
21
-11.479553
31
0.0
12
128.8728
22
-7.336487
32
0.0
13
128.87291
23
-7.3363867
33
1.0E-4
0
3DFACE
8
0
10
135.88159
20
-15.370361
30
0.0
11
128.8728
21
-7.336487
31
0.0
12
126.07373
22
-11.479553
32
0.0
13
126.07383
23
-11.479453
33
1.0E-4
0
3DFACE
8
0
10
128.8728
20
-7.336487
30
0.0
11
135.88159
21
-15.370361
31
0.0
12
137.69824
22
-10.712036
32
0.0
13
137.69835
23
-10.711936
33
1.0E-4
0
3DFACE
8
0
10
146.5863
20
-16.247467
30
0.0
11
137.69824
21
-10.712036
31
0.0
12
135.88159
22
-15.370361
32
0.0
13
135.8817
23
-15.370261
33
1.0E-4
0
3DFACE
8
0
10
137.69824
20
-10.712036
30
0.0
11
146.5863
21
-16.247467
31
0.0
12
146.94263
22
-11.260162
32
0.0
13
146.94273
23
-11.260062
33
1.0E-4
0
3DFACE
8
0
10
154.92505
20
-20.051025
30
0.0
11
146.94263
21
-11.260162
31
0.0
12
146.5863
22
-16.247467
32
0.0
13
146.58641
23
-16.247368
33
1.0E-4
0
3DFACE
8
0
10
146.94263
20
-11.260162
30
0.0
11
154.92505
21
-20.051025
31
0.0
12
156.92834
22
-15.46991
32
0.0
13
156.92845
23
-15.46981
33
1.0E-4
0
3DFACE
8
0
10
164.35675
20
-23.692139
30
0.0
11
156.92834
21
-15.46991
31
0.0
12
154.92505
22
-20.051025
32
0.0
13
154.92516
23
-20.050926
33
1.0E-4
0
3DFACE
8
0
10
156.92834
20
-15.46991
30
0.0
11
164.35675
21
-23.692139
31
0.0
12
166.15631
22
-19.027222
32
0.0
13
166.15642
23
-19.027122
33
1.0E-4
0
3DFACE
8
0
10
172.3186
20
-28.868164
30
0.0
11
166.15631
21
-19.027222
31
0.0
12
164.35675
22
-23.692139
32
0.0
13
164.35686
23
-23.69204
33
1.0E-4
0
3DFACE
8
0
10
166.15631
20
-19.027222
30
0.0
11
172.3186
21
-28.868164
31
0.0
12
175.02112
22
-24.661499
32
0.0
13
175.02122
23
-24.6614
33
1.0E-4
0
3DFACE
8
0
10
182.45886
20
-32.15033
30
0.0
11
175.02112
21
-24.661499
31
0.0
12
172.3186
22
-28.868164
32
0.0
13
172.31871
23
-28.868065
33
1.0E-4
0
3DFACE
8
0
10
175.02112
20
-24.661499
30
0.0
11
182.45886
21
-32.15033
31
0.0
12
183.95923
22
-27.380737
32
0.0
13
183.95934
23
-27.380638
33
1.0E-4
0
3DFACE
8
0
10
189.8894
20
-37.61554
30
0.0
11
183.95923
21
-27.380737
31
0.0
12
182.45886
22
-32.15033
32
0.0
13
182.45897
23
-32.15023
33
1.0E-4
0
3DFACE
8
0
10
183.95923
20
-27.380737
30
0.0
11
189.8894
21
-37.61554
31
0.0
12
192.7976
22
-33.54828
32
0.0
13
192.79771
23
-33.54818
33
1.0E-4
0
3DFACE
8
0
10
195.71826
20
-44.915283
30
0.0
11
192.7976
21
-33.54828
31
0.0
12
189.8894
22
-37.61554
32
0.0
13
189.88951
23
-37.61544
33
1.0E-4
0
3DFACE
8
0
10
192.7976
20
-33.54828
30
0.0
11
195.71826
21
-44.915283
31
0.0
12
199.5957
22
-41.758545
32
0.0
13
199.59581
23
-41.758446
33
1.0E-4
0
3DFACE
8
0
10
201.71881
20
-52.81067
30
0.0
11
199.5957
21
-41.758545
31
0.0
12
195.71826
22
-44.915283
32
0.0
13
195.71837
23
-44.915184
33
1.0E-4
0
3DFACE
8
0
10
199.5957
20
-41.758545
30
0.0
11
201.71881
21
-52.81067
31
0.0
12
205.69916
22
-49.784668
32
0.0
13
205.69926
23
-49.78457
33
1.0E-4
0
3DFACE
8
0
10
80.19452
20
-2.0774841
30
0.0
11
89.41351
21
-3.5674744
31
0.0
12
90.16412
22
1.375885
32
0.0
13
90.16422
23
1.375985
33
1.0E-4
0
3DFACE
8
0
10
100.05792
20
-1.9874268
30
0.0
11
90.16412
21
1.375885
31
0.0
12
89.41351
22
-3.5674744
32
0.0
13
89.41361
23
-3.5673745
33
1.0E-4
0
3DFACE
8
0
10
90.16412
20
1.375885
30
0.0
11
100.05792
21
-1.9874268
31
0.0
12
99.26941
22
2.9500122
32
0.0
13
99.26951
23
2.950112
33
1.0E-4
0
3DFACE
8
0
10
109.95224
20
1.1097717
30
0.0
11
99.26941
21
2.9500122
31
0.0
12
100.05792
22
-1.9874268
32
0.0
13
100.05802
23
-1.9873267
33
1.0E-4
0
3DFACE
8
0
10
90.16412
20
1.375885
30
0.0
11
79.60974
21
2.888214
31
0.0
12
80.19452
22
-2.0774841
32
0.0
13
80.19462
23
-2.0773842
33
1.0E-4
0
3DFACE
8
0
10
70.161835
20
1.7284241
30
0.0
11
80.19452
21
-2.0774841
31
0.0
12
79.60974
22
2.888214
32
0.0
13
79.60984
23
2.888314
33
1.0E-4
0
3DFACE
8
0
10
80.19452
20
-2.0774841
30
0.0
11
70.161835
21
1.7284241
31
0.0
12
69.77969
22
-3.2569275
32
0.0
13
69.77979
23
-3.2568276
33
1.0E-4
0
3DFACE
8
0
10
60.0
20
2.5
30
0.0
11
69.77969
21
-3.2569275
31
0.0
12
70.161835
22
1.7284241
32
0.0
13
70.161934
23
1.7285241
33
1.0E-4
0
3DFACE
8
0
10
69.77969
20
-3.2569275
30
0.0
11
60.0
21
2.5
31
0.0
12
60.0
22
-2.5
32
0.0
13
60.0001
23
-2.4999
33
1.0E-4
0
3DFACE
8
0
10
50.0
20
2.5
30
0.0
11
60.0
21
-2.5
31
0.0
12
60.0
22
2.5
32
0.0
13
60.0001
23
2.5001
33
1.0E-4
0
3DFACE
8
0
10
60.0
20
-2.5
30
0.0
11
50.0
21
2.5
31
0.0
12
50.0
22
-2.5
32
0.0
13
50.0001
23
-2.4999
33
1.0E-4
0
3DFACE
8
0
10
205.33466
20
-80.45795
30
0.0
11
205.03802
21
-90.49536
31
0.0
12
210.03583
22
-90.64288
32
0.0
13
210.03593
23
-90.642784
33
1.0E-4
0
3DFACE
8
0
10
205.33466
20
-80.45795
30
0.0
11
210.03583
21
-90.64288
31
0.0
12
205.8067
22
-70.83536
32
0.0
13
205.80681
23
-70.83526
33
1.0E-4
0
3DFACE
8
0
10
209.6236
20
-59.739685
30
0.0
11
210.32928
21
-80.689026
31
0.0
12
210.78143
22
-70.33298
32
0.0
13
210.78154
23
-70.33288
33
1.0E-4
0
3DFACE
8
0
10
50.0
20
-2.0
30
0.0
11
50.0
21
-3.0
31
0.0
12
60.0
22
-3.0
32
0.0
13
60.0001
23
-2.9999
33
1.0E-4
0
3DFACE
8
0
10
60.0
20
-3.0
30
0.0
11
50.0
21
-2.0
31
0.0
12
60.0
22
-2.0
32
0.0
13
60.0001
23
-1.9999
33
1.0E-4
0
3DFACE
8
0
10
60.038574
20
-2.0014954
30
0.0
11
59.961426
21
-2.9985046
31
0.0
12
69.74112
22
-3.7554321
32
0.0
13
69.74122
23
-3.7553322
33
1.0E-4
0
3DFACE
8
0
10
69.74112
20
-3.7554321
30
0.0
11
60.038574
21
-2.0014954
31
0.0
12
69.81827
22
-2.7584229
32
0.0
13
69.81837
23
-2.758323
33
1.0E-4
0
3DFACE
8
0
10
69.72342
20
-2.7601013
30
0.0
11
69.83597
21
-3.7537537
31
0.0
12
80.25079
22
-2.5743103
32
0.0
13
80.25089
23
-2.5742104
33
1.0E-4
0
3DFACE
8
0
10
80.25079
20
-2.5743103
30
0.0
11
69.72342
21
-2.7601013
31
0.0
12
80.138245
22
-1.580658
32
0.0
13
80.13834
23
-1.580558
33
1.0E-4
0
3DFACE
8
0
10
80.27429
20
-1.5838928
30
0.0
11
80.114746
21
-2.5710754
31
0.0
12
89.33374
22
-4.0610657
32
0.0
13
89.33384
23
-4.0609655
33
1.0E-4
0
3DFACE
8
0
10
89.33374
20
-4.0610657
30
0.0
11
80.27429
21
-1.5838928
31
0.0
12
89.493286
22
-3.073883
32
0.0
13
89.493385
23
-3.0737832
33
1.0E-4
0
3DFACE
8
0
10
89.34009
20
-3.0729065
30
0.0
11
89.48694
21
-4.062042
31
0.0
12
100.13135
22
-2.4819946
32
0.0
13
100.13145
23
-2.4818947
33
1.0E-4
0
3DFACE
8
0
10
100.13135
20
-2.4819946
30
0.0
11
89.34009
21
-3.0729065
31
0.0
12
99.9845
22
-1.4928589
32
0.0
13
99.9846
23
-1.4927589
33
1.0E-4
0
3DFACE
8
0
10
100.157166
20
-1.4973755
30
0.0
11
99.95868
21
-2.477478
31
0.0
12
108.938324
22
-4.295929
32
0.0
13
108.93842
23
-4.295829
33
1.0E-4
0
3DFACE
8
0
10
108.938324
20
-4.295929
30
0.0
11
100.157166
21
-1.4973755
31
0.0
12
109.13681
22
-3.3158264
32
0.0
13
109.13691
23
-3.3157265
33
1.0E-4
0
3DFACE
8
0
10
109.16092
20
-3.3213196
30
0.0
11
108.914215
21
-4.290436
31
0.0
12
118.448364
22
-6.717407
32
0.0
13
118.44846
23
-6.717307
33
1.0E-4
0
3DFACE
8
0
10
118.448364
20
-6.717407
30
0.0
11
109.16092
21
-3.3213196
31
0.0
12
118.69507
22
-5.748291
32
0.0
13
118.69517
23
-5.748191
33
1.0E-4
0
3DFACE
8
0
10
118.85828
20
-5.82312
30
0.0
11
118.28516
21
-6.642578
31
0.0
12
125.78717
22
-11.889282
32
0.0
13
125.78727
23
-11.889182
33
1.0E-4
0
3DFACE
8
0
10
125.78717
20
-11.889282
30
0.0
11
118.85828
21
-5.82312
31
0.0
12
126.36029
22
-11.069824
32
0.0
13
126.36039
23
-11.069724
33
1.0E-4
0
3DFACE
8
0
10
126.25812
20
-11.014801
30
0.0
11
125.88934
21
-11.944305
31
0.0
12
135.6972
22
-15.835114
32
0.0
13
135.69731
23
-15.835013
33
1.0E-4
0
3DFACE
8
0
10
135.6972
20
-15.835114
30
0.0
11
126.25812
21
-11.014801
31
0.0
12
136.06598
22
-14.905609
32
0.0
13
136.06609
23
-14.905509
33
1.0E-4
0
3DFACE
8
0
10
135.92242
20
-14.87204
30
0.0
11
135.84076
21
-15.868683
31
0.0
12
146.54547
22
-16.745789
32
0.0
13
146.54558
23
-16.74569
33
1.0E-4
0
3DFACE
8
0
10
146.54547
20
-16.745789
30
0.0
11
135.92242
21
-14.87204
31
0.0
12
146.62714
22
-15.7491455
32
0.0
13
146.62724
23
-15.749045
33
1.0E-4
0
3DFACE
8
0
10
146.79382
20
-15.7925415
30
0.0
11
146.37878
21
-16.702393
31
0.0
12
154.71753
22
-20.50595
32
0.0
13
154.71764
23
-20.505852
33
1.0E-4
0
3DFACE
8
0
10
154.71753
20
-20.50595
30
0.0
11
146.79382
21
-15.7925415
31
0.0
12
155.13257
22
-19.5961
32
0.0
13
155.13268
23
-19.596
33
1.0E-4
0
3DFACE
8
0
10
155.1051
20
-19.584564
30
0.0
11
154.745
21
-20.517487
31
0.0
12
164.1767
22
-24.1586
32
0.0
13
164.1768
23
-24.1585
33
1.0E-4
0
3DFACE
8
0
10
164.1767
20
-24.1586
30
0.0
11
155.1051
21
-19.584564
31
0.0
12
164.5368
22
-23.225677
32
0.0
13
164.53691
23
-23.225578
33
1.0E-4
0
3DFACE
8
0
10
164.62927
20
-23.27295
30
0.0
11
164.08423
21
-24.111328
31
0.0
12
172.04608
22
-29.287354
32
0.0
13
172.04619
23
-29.287254
33
1.0E-4
0
3DFACE
8
0
10
172.04608
20
-29.287354
30
0.0
11
164.62927
21
-23.27295
31
0.0
12
172.59113
22
-28.448975
32
0.0
13
172.59123
23
-28.448875
33
1.0E-4
0
3DFACE
8
0
10
172.4726
20
-28.392456
30
0.0
11
172.16461
21
-29.343872
31
0.0
12
182.30487
22
-32.626038
32
0.0
13
182.30498
23
-32.62594
33
1.0E-4
0
3DFACE
8
0
10
182.30487
20
-32.626038
30
0.0
11
172.4726
21
-28.392456
31
0.0
12
182.61285
22
-31.674622
32
0.0
13
182.61296
23
-31.674522
33
1.0E-4
0
3DFACE
8
0
10
182.75513
20
-31.747559
30
0.0
11
182.1626
21
-32.5531
31
0.0
12
189.59314
22
-38.01831
32
0.0
13
189.59325
23
-38.01821
33
1.0E-4
0
3DFACE
8
0
10
189.59314
20
-38.01831
30
0.0
11
182.75513
21
-31.747559
31
0.0
12
190.18567
22
-37.21277
32
0.0
13
190.18578
23
-37.21267
33
1.0E-4
0
3DFACE
8
0
10
190.28015
20
-37.30356
30
0.0
11
189.49866
21
-37.92752
31
0.0
12
195.32751
22
-45.227264
32
0.0
13
195.32762
23
-45.227165
33
1.0E-4
0
3DFACE
8
0
10
195.32751
20
-45.227264
30
0.0
11
190.28015
21
-37.30356
31
0.0
12
196.10901
22
-44.603302
32
0.0
13
196.10912
23
-44.603203
33
1.0E-4
0
3DFACE
8
0
10
196.11633
20
-44.612732
30
0.0
11
195.32019
21
-45.217834
31
0.0
12
201.32074
22
-53.11322
32
0.0
13
201.32085
23
-53.11312
33
1.0E-4
0
3DFACE
8
0
10
201.32074
20
-53.11322
30
0.0
11
196.11633
21
-44.612732
31
0.0
12
202.11688
22
-52.508118
32
0.0
13
202.11699
23
-52.50802
33
1.0E-4
0
3DFACE
8
0
10
202.18756
20
-52.63669
30
0.0
11
201.25006
21
-52.98465
31
0.0
12
204.48627
22
-61.703827
32
0.0
13
204.48637
23
-61.703728
33
1.0E-4
0
3DFACE
8
0
10
204.48627
20
-61.703827
30
0.0
11
202.18756
21
-52.63669
31
0.0
12
205.42377
22
-61.355865
32
0.0
13
205.42387
23
-61.355766
33
1.0E-4
0
3DFACE
8
0
10
205.45294
20
-61.484283
30
0.0
11
204.45709
21
-61.57541
31
0.0
12
205.30878
22
-70.88092
32
0.0
13
205.30888
23
-70.88082
33
1.0E-4
0
3DFACE
8
0
10
205.30878
20
-70.88092
30
0.0
11
205.45294
21
-61.484283
31
0.0
12
206.30463
22
-70.789795
32
0.0
13
206.30473
23
-70.789696
33
1.0E-4
0
3DFACE
8
0
10
206.30609
20
-70.85986
30
0.0
11
205.30731
21
-70.81085
31
0.0
12
204.83527
22
-80.43344
32
0.0
13
204.83537
23
-80.43334
33
1.0E-4
0
3DFACE
8
0
10
204.83527
20
-80.43344
30
0.0
11
206.30609
21
-70.85986
31
0.0
12
205.83405
22
-80.48245
32
0.0
13
205.83415
23
-80.48235
33
1.0E-4
0
3DFACE
8
0
10
205.83441
20
-80.47272
30
0.0
11
204.8349
21
-80.44318
31
0.0
12
204.53827
22
-90.48059
32
0.0
13
204.53838
23
-90.48049
33
1.0E-4
0
3DFACE
8
0
10
204.53827
20
-90.48059
30
0.0
11
205.83441
21
-80.47272
31
0.0
12
205.53778
22
-90.51013
32
0.0
13
205.53789
23
-90.51003
33
1.0E-4
0
3DFACE
8
0
10
205.0528
20
-89.995575
30
0.0
11
205.02325
21
-90.99515
31
0.0
12
210.02106
22
-91.14267
32
0.0
13
210.02116
23
-91.14257
33
1.0E-4
0
3DFACE
8
0
10
210.02106
20
-91.14267
30
0.0
11
205.0528
21
-89.995575
31
0.0
12
210.0506
22
-90.1431
32
0.0
13
210.0507
23
-90.143
33
1.0E-4
0
3DFACE
8
0
10
209.53607
20
-90.62814
30
0.0
11
210.53558
21
-90.65762
31
0.0
12
210.82904
22
-80.703766
32
0.0
13
210.82915
23
-80.70367
33
1.0E-4
0
3DFACE
8
0
10
210.82904
20
-80.703766
30
0.0
11
209.53607
21
-90.62814
31
0.0
12
209.82953
22
-80.674286
32
0.0
13
209.82964
23
-80.67419
33
1.0E-4
0
3DFACE
8
0
10
209.82977
20
-80.667206
30
0.0
11
210.8288
21
-80.710846
31
0.0
12
211.28094
22
-70.3548
32
0.0
13
211.28105
23
-70.3547
33
1.0E-4
0
3DFACE
8
0
10
211.28094
20
-70.3548
30
0.0
11
209.82977
21
-80.667206
31
0.0
12
210.28192
22
-70.31116
32
0.0
13
210.28203
23
-70.31106
33
1.0E-4
0
3DFACE
8
0
10
210.28436
20
-70.3873
30
0.0
11
211.2785
21
-70.278656
31
0.0
12
210.12067
22
-59.685364
32
0.0
13
210.12077
23
-59.685265
33
1.0E-4
0
3DFACE
8
0
10
210.12067
20
-59.685364
30
0.0
11
210.28436
21
-70.3873
31
0.0
12
209.12653
22
-59.794006
32
0.0
13
209.12663
23
-59.793907
33
1.0E-4
0
3DFACE
8
0
10
209.15845
20
-59.923065
30
0.0
11
210.08875
21
-59.556305
31
0.0
12
206.1643
22
-49.601288
32
0.0
13
206.16441
23
-49.60119
33
1.0E-4
0
3DFACE
8
0
10
206.1643
20
-49.601288
30
0.0
11
209.15845
21
-59.923065
31
0.0
12
205.23401
22
-49.96805
32
0.0
13
205.23412
23
-49.96795
33
1.0E-4
0
3DFACE
8
0
10
205.30115
20
-50.08731
30
0.0
11
206.09717
21
-49.482025
31
0.0
12
199.99371
22
-41.455902
32
0.0
13
199.99382
23
-41.455803
33
1.0E-4
0
3DFACE
8
0
10
199.99371
20
-41.455902
30
0.0
11
205.30115
21
-50.08731
31
0.0
12
199.1977
22
-42.061188
32
0.0
13
199.1978
23
-42.06109
33
1.0E-4
0
3DFACE
8
0
10
199.21057
20
-42.077423
30
0.0
11
199.98083
21
-41.439667
31
0.0
12
193.18274
22
-33.2294
32
0.0
13
193.18285
23
-33.2293
33
1.0E-4
0
3DFACE
8
0
10
193.18274
20
-33.2294
30
0.0
11
199.21057
21
-42.077423
31
0.0
12
192.41248
22
-33.867157
32
0.0
13
192.41258
23
-33.867058
33
1.0E-4
0
3DFACE
8
0
10
192.51147
20
-33.958313
30
0.0
11
193.08374
21
-33.138245
31
0.0
12
184.24536
22
-26.970703
32
0.0
13
184.24547
23
-26.970604
33
1.0E-4
0
3DFACE
8
0
10
184.24536
20
-26.970703
30
0.0
11
192.51147
21
-33.958313
31
0.0
12
183.6731
22
-27.790771
32
0.0
13
183.6732
23
-27.790672
33
1.0E-4
0
3DFACE
8
0
10
183.81372
20
-27.8591
30
0.0
11
184.10474
21
-26.902374
31
0.0
12
175.16663
22
-24.183136
32
0.0
13
175.16673
23
-24.183037
33
1.0E-4
0
3DFACE
8
0
10
175.16663
20
-24.183136
30
0.0
11
183.81372
21
-27.8591
31
0.0
12
174.87561
22
-25.139862
32
0.0
13
174.87572
23
-25.139763
33
1.0E-4
0
3DFACE
8
0
10
174.75293
20
-25.083466
30
0.0
11
175.2893
21
-24.239532
31
0.0
12
166.4245
22
-18.605255
32
0.0
13
166.4246
23
-18.605156
33
1.0E-4
0
3DFACE
8
0
10
166.4245
20
-18.605255
30
0.0
11
174.75293
21
-25.083466
31
0.0
12
165.88812
22
-19.449188
32
0.0
13
165.88823
23
-19.44909
33
1.0E-4
0
3DFACE
8
0
10
165.97644
20
-19.493744
30
0.0
11
166.33618
21
-18.5607
31
0.0
12
157.10822
22
-15.003387
32
0.0
13
157.10832
23
-15.003287
33
1.0E-4
0
3DFACE
8
0
10
157.10822
20
-15.003387
30
0.0
11
165.97644
21
-19.493744
31
0.0
12
156.74847
22
-15.936432
32
0.0
13
156.74858
23
-15.936332
33
1.0E-4
0
3DFACE
8
0
10
156.73413
20
-15.930634
30
0.0
11
157.12256
21
-15.009186
31
0.0
12
147.13684
22
-10.799438
32
0.0
13
147.13695
23
-10.799338
33
1.0E-4
0
3DFACE
8
0
10
147.13684
20
-10.799438
30
0.0
11
156.73413
21
-15.930634
31
0.0
12
146.74841
22
-11.720886
32
0.0
13
146.74852
23
-11.720786
33
1.0E-4
0
3DFACE
8
0
10
146.91302
20
-11.759277
30
0.0
11
146.97223
21
-10.761047
31
0.0
12
137.72784
22
-10.212921
32
0.0
13
137.72795
23
-10.212821
33
1.0E-4
0
3DFACE
8
0
10
137.72784
20
-10.212921
30
0.0
11
146.91302
21
-11.759277
31
0.0
12
137.66864
22
-11.211151
32
0.0
13
137.66875
23
-11.211051
33
1.0E-4
0
3DFACE
8
0
10
137.51959
20
-11.179047
30
0.0
11
137.87689
21
-10.245026
31
0.0
12
129.05145
22
-6.8694763
32
0.0
13
129.05156
23
-6.869376
33
1.0E-4
0
3DFACE
8
0
10
129.05145
20
-6.8694763
30
0.0
11
137.51959
21
-11.179047
31
0.0
12
128.69415
22
-7.8034973
32
0.0
13
128.69426
23
-7.803397
33
1.0E-4
0
3DFACE
8
0
10
128.59857
20
-7.7545776
30
0.0
11
129.14703
21
-6.918396
31
0.0
12
120.07678
22
-0.9686279
32
0.0
13
120.07688
23
-0.9685279
33
1.0E-4
0
3DFACE
8
0
10
120.07678
20
-0.9686279
30
0.0
11
128.59857
21
-7.7545776
31
0.0
12
119.52832
22
-1.8048096
32
0.0
13
119.52842
23
-1.8047096
33
1.0E-4
0
3DFACE
8
0
10
119.67969
20
-1.8713989
30
0.0
11
119.925415
21
-0.9020386
31
0.0
12
110.07507
22
1.5944519
32
0.0
13
110.07517
23
1.5945519
33
1.0E-4
0
3DFACE
8
0
10
110.07507
20
1.5944519
30
0.0
11
119.67969
21
-1.8713989
31
0.0
12
109.82941
22
0.62509155
32
0.0
13
109.829506
23
0.62519157
33
1.0E-4
0
3DFACE
8
0
10
109.86737
20
0.6170349
30
0.0
11
110.03711
21
1.6025085
31
0.0
12
99.35428
22
3.442749
32
0.0
13
99.35438
23
3.442849
33
1.0E-4
0
3DFACE
8
0
10
99.35428
20
3.442749
30
0.0
11
109.86737
21
0.6170349
31
0.0
12
99.18454
22
2.4572754
32
0.0
13
99.18464
23
2.4573753
33
1.0E-4
0
3DFACE
8
0
10
99.35458
20
2.457306
30
0.0
11
99.184235
21
3.4427185
31
0.0
12
90.07895
22
1.8685913
32
0.0
13
90.07905
23
1.8686913
33
1.0E-4
0
3DFACE
8
0
10
90.07895
20
1.8685913
30
0.0
11
99.35458
21
2.457306
31
0.0
12
90.2493
22
0.8831787
32
0.0
13
90.2494
23
0.8832787
33
1.0E-4
0
3DFACE
8
0
10
90.0932
20
0.8809509
30
0.0
11
90.23505
21
1.8708191
31
0.0
12
79.680664
22
3.3831482
32
0.0
13
79.68076
23
3.383248
33
1.0E-4
0
3DFACE
8
0
10
79.680664
20
3.3831482
30
0.0
11
90.0932
21
0.8809509
31
0.0
12
79.53882
22
2.39328
32
0.0
13
79.53892
23
2.39338
33
1.0E-4
0
3DFACE
8
0
10
79.670654
20
2.3919373
30
0.0
11
79.54883
21
3.384491
31
0.0
12
70.10092
22
2.224701
32
0.0
13
70.10102
23
2.2248008
33
1.0E-4
0
3DFACE
8
0
10
70.10092
20
2.224701
30
0.0
11
79.670654
21
2.3919373
31
0.0
12
70.22275
22
1.2321472
32
0.0
13
70.22285
23
1.2322472
33
1.0E-4
0
3DFACE
8
0
10
70.12399
20
1.2298584
30
0.0
11
70.19968
21
2.2269897
31
0.0
12
60.03784
22
2.9985657
32
0.0
13
60.03794
23
2.9986656
33
1.0E-4
0
3DFACE
8
0
10
60.03784
20
2.9985657
30
0.0
11
70.12399
21
1.2298584
31
0.0
12
59.96216
22
2.0014343
32
0.0
13
59.962257
23
2.0015342
33
1.0E-4
0
3DFACE
8
0
10
60.0
20
2.0
30
0.0
11
60.0
21
3.0
31
0.0
12
50.0
22
3.0
32
0.0
13
50.0001
23
3.0001
33
1.0E-4
0
3DFACE
8
0
10
50.0
20
3.0
30
0.0
11
60.0
21
2.0
31
0.0
12
50.0
22
2.0
32
0.0
13
50.0001
23
2.0001
33
1.0E-4
0
ENDSEC
0
EOF
